<svg width="16" height="16" viewBox="0 0 16 16" fill="none" xmlns="http://www.w3.org/2000/svg">
<path d="M0.25 14.3333C0.25 14.7475 0.585786 15.0833 1 15.0833C1.41421 15.0833 1.75 14.7475 1.75 14.3333H0.25ZM13.5833 14.3333C13.5833 14.7475 13.9191 15.0833 14.3333 15.0833C14.7475 15.0833 15.0833 14.7475 15.0833 14.3333H13.5833ZM11.0833 5.16667C11.0833 7.05364 9.55364 8.58333 7.66667 8.58333V10.0833C10.3821 10.0833 12.5833 7.88207 12.5833 5.16667H11.0833ZM7.66667 8.58333C5.77969 8.58333 4.25 7.05364 4.25 5.16667H2.75C2.75 7.88207 4.95127 10.0833 7.66667 10.0833V8.58333ZM4.25 5.16667C4.25 3.27969 5.77969 1.75 7.66667 1.75V0.25C4.95127 0.25 2.75 2.45127 2.75 5.16667H4.25ZM7.66667 1.75C9.55364 1.75 11.0833 3.27969 11.0833 5.16667H12.5833C12.5833 2.45127 10.3821 0.25 7.66667 0.25V1.75ZM1.75 14.3333C1.75 13.2416 2.33826 12.1961 3.40262 11.3978C4.46721 10.5994 5.9723 10.0833 7.66667 10.0833V8.58333C5.67913 8.58333 3.85089 9.1866 2.50262 10.1978C1.15412 11.2092 0.25 12.6636 0.25 14.3333H1.75ZM15.0833 14.3333C15.0833 12.6636 14.1792 11.2092 12.8307 10.1978C11.4824 9.1866 9.6542 8.58333 7.66667 8.58333V10.0833C9.36103 10.0833 10.8661 10.5994 11.9307 11.3978C12.9951 12.1961 13.5833 13.2416 13.5833 14.3333H15.0833Z" fill="#807D7E"/>
</svg>
