<svg width="16" height="14" viewBox="0 0 16 14" fill="none" xmlns="http://www.w3.org/2000/svg">
<path d="M1 6.2C0.558172 6.2 0.2 6.55817 0.2 7C0.2 7.44183 0.558172 7.8 1 7.8V6.2ZM14 7.8C14.4418 7.8 14.8 7.44183 14.8 7C14.8 6.55817 14.4418 6.2 14 6.2V7.8ZM9.56569 0.434315C9.25327 0.121895 8.74673 0.121895 8.43431 0.434315C8.1219 0.746734 8.1219 1.25327 8.43431 1.56569L9.56569 0.434315ZM8.43431 12.4343C8.1219 12.7467 8.1219 13.2533 8.43431 13.5657C8.74673 13.8781 9.25327 13.8781 9.56569 13.5657L8.43431 12.4343ZM1 7.8H14V6.2H1V7.8ZM8.43431 1.56569L13.7272 6.85858L14.8586 5.72721L9.56569 0.434315L8.43431 1.56569ZM13.7272 7.14142L8.43431 12.4343L9.56569 13.5657L14.8586 8.27279L13.7272 7.14142ZM13.7272 6.85858C13.8053 6.93668 13.8053 7.06332 13.7272 7.14142L14.8586 8.27279C15.5615 7.56985 15.5615 6.43015 14.8586 5.72721L13.7272 6.85858Z" fill="#3C4242"/>
</svg>
