<svg width="16" height="14" viewBox="0 0 16 14" fill="none" xmlns="http://www.w3.org/2000/svg">
<path d="M14.5859 7.8C15.0278 7.8 15.3859 7.44183 15.3859 7C15.3859 6.55817 15.0278 6.2 14.5859 6.2L14.5859 7.8ZM1.58594 6.2C1.14411 6.2 0.785938 6.55817 0.785938 7C0.785938 7.44183 1.14411 7.8 1.58594 7.8L1.58594 6.2ZM6.02025 13.5657C6.33267 13.8781 6.8392 13.8781 7.15162 13.5657C7.46404 13.2533 7.46404 12.7467 7.15162 12.4343L6.02025 13.5657ZM7.15162 1.56568C7.46404 1.25327 7.46404 0.746733 7.15162 0.434314C6.8392 0.121894 6.33267 0.121894 6.02025 0.434314L7.15162 1.56568ZM14.5859 6.2L1.58594 6.2L1.58594 7.8L14.5859 7.8L14.5859 6.2ZM7.15162 12.4343L1.85873 7.14142L0.727359 8.27279L6.02025 13.5657L7.15162 12.4343ZM1.85873 6.85858L7.15162 1.56568L6.02025 0.434314L0.727359 5.72721L1.85873 6.85858ZM1.85873 7.14142C1.78063 7.06332 1.78063 6.93668 1.85873 6.85858L0.727359 5.72721C0.0244159 6.43015 0.0244158 7.56985 0.727359 8.27279L1.85873 7.14142Z" fill="#3C4242"/>
</svg>
