<svg width="21" height="12" viewBox="0 0 21 12" fill="none" xmlns="http://www.w3.org/2000/svg">
<path d="M3.01218 0.974751C2.44595 0.416298 1.53422 0.422601 0.975763 0.98883C0.417309 1.55506 0.423612 2.4668 0.989841 3.02525L3.01218 0.974751ZM9.49538 9.39146L8.48421 10.4167L9.49538 9.39146ZM11.4978 9.39146L10.4866 8.36621L10.4866 8.36621L11.4978 9.39146ZM20.0034 3.02525C20.5696 2.4668 20.5759 1.55506 20.0174 0.988832C19.459 0.422602 18.5472 0.416299 17.981 0.974753L20.0034 3.02525ZM0.989841 3.02525L8.48421 10.4167L10.5066 8.36621L3.01218 0.974751L0.989841 3.02525ZM12.509 10.4167L20.0034 3.02525L17.981 0.974753L10.4866 8.36621L12.509 10.4167ZM8.48421 10.4167C9.59787 11.5151 11.3953 11.5151 12.509 10.4167L10.4866 8.36621C10.4869 8.36591 10.4881 8.3649 10.4899 8.36371C10.4916 8.36257 10.4933 8.36174 10.4947 8.3612C10.4971 8.36023 10.4977 8.36048 10.4966 8.36048C10.4955 8.36048 10.4961 8.36023 10.4985 8.3612C10.4999 8.36174 10.5015 8.36257 10.5033 8.36371C10.5051 8.3649 10.5063 8.36591 10.5066 8.36621L8.48421 10.4167Z" fill="#F6F6F6"/>
</svg>
