<svg width="17" height="16" viewBox="0 0 17 16" fill="none" xmlns="http://www.w3.org/2000/svg">
<path d="M1 0.25C0.585786 0.25 0.25 0.585786 0.25 1C0.25 1.41421 0.585786 1.75 1 1.75V0.25ZM3.1621 2.48592L2.41652 2.56726L2.41652 2.56726L3.1621 2.48592ZM3.8379 8.68074L3.09232 8.76208L3.09232 8.76208L3.8379 8.68074ZM14.32 8.91185L13.5933 8.72652L13.5933 8.72652L14.32 8.91185ZM15.4699 4.40259L14.7432 4.21726L14.7432 4.21726L15.4699 4.40259ZM4 1.57407C3.58579 1.57407 3.25 1.90986 3.25 2.32407C3.25 2.73829 3.58579 3.07407 4 3.07407V1.57407ZM4.02063 12.4374C3.60642 12.4374 3.27063 12.7732 3.27063 13.1874C3.27063 13.6017 3.60642 13.9374 4.02063 13.9374V12.4374ZM4.64563 13.9374C5.05984 13.9374 5.39563 13.6017 5.39563 13.1874C5.39563 12.7732 5.05984 12.4374 4.64563 12.4374V13.9374ZM4.02063 13.0624C3.60642 13.0624 3.27063 13.3982 3.27063 13.8124C3.27063 14.2267 3.60642 14.5624 4.02063 14.5624V13.0624ZM4.64563 14.5624C5.05984 14.5624 5.39563 14.2267 5.39563 13.8124C5.39563 13.3982 5.05984 13.0624 4.64563 13.0624V14.5624ZM13.1873 12.4374C12.7731 12.4374 12.4373 12.7732 12.4373 13.1874C12.4373 13.6017 12.7731 13.9374 13.1873 13.9374V12.4374ZM13.8123 13.9374C14.2265 13.9374 14.5623 13.6017 14.5623 13.1874C14.5623 12.7732 14.2265 12.4374 13.8123 12.4374V13.9374ZM13.1873 13.0624C12.7731 13.0624 12.4373 13.3982 12.4373 13.8124C12.4373 14.2267 12.7731 14.5624 13.1873 14.5624V13.0624ZM13.8123 14.5624C14.2265 14.5624 14.5623 14.2267 14.5623 13.8124C14.5623 13.3982 14.2265 13.0624 13.8123 13.0624V14.5624ZM1 1.75H1.50526V0.25H1V1.75ZM2.41652 2.56726L3.09232 8.76208L4.58348 8.59941L3.90768 2.40459L2.41652 2.56726ZM5.49474 10.9167H12.705V9.41667H5.49474V10.9167ZM15.0467 9.09718L16.1967 4.58792L14.7432 4.21726L13.5933 8.72652L15.0467 9.09718ZM13.855 1.57407H4V3.07407H13.855V1.57407ZM16.1967 4.58792C16.5864 3.0599 15.4319 1.57407 13.855 1.57407V3.07407C14.4531 3.07407 14.891 3.63767 14.7432 4.21726L16.1967 4.58792ZM12.705 10.9167C13.8097 10.9167 14.7738 10.1676 15.0467 9.09718L13.5933 8.72652C13.4897 9.13254 13.124 9.41667 12.705 9.41667V10.9167ZM3.09232 8.76208C3.22607 9.98806 4.26148 10.9167 5.49474 10.9167V9.41667C5.02695 9.41667 4.63421 9.06444 4.58348 8.59941L3.09232 8.76208ZM1.50526 1.75C1.97305 1.75 2.36579 2.10223 2.41652 2.56726L3.90768 2.40459C3.77393 1.17861 2.73852 0.25 1.50526 0.25V1.75ZM4.41667 13.5C4.41667 13.546 4.37936 13.5833 4.33333 13.5833V15.0833C5.20779 15.0833 5.91667 14.3745 5.91667 13.5H4.41667ZM4.33333 13.5833C4.28731 13.5833 4.25 13.546 4.25 13.5H2.75C2.75 14.3745 3.45888 15.0833 4.33333 15.0833V13.5833ZM4.25 13.5C4.25 13.454 4.28731 13.4167 4.33333 13.4167V11.9167C3.45888 11.9167 2.75 12.6255 2.75 13.5H4.25ZM4.33333 13.4167C4.37936 13.4167 4.41667 13.454 4.41667 13.5H5.91667C5.91667 12.6255 5.20779 11.9167 4.33333 11.9167V13.4167ZM4.02063 13.9374H4.64563V12.4374H4.02063V13.9374ZM4.02063 14.5624H4.64563V13.0624H4.02063V14.5624ZM13.5833 13.5C13.5833 13.546 13.546 13.5833 13.5 13.5833V15.0833C14.3745 15.0833 15.0833 14.3745 15.0833 13.5H13.5833ZM13.5 13.5833C13.454 13.5833 13.4167 13.546 13.4167 13.5H11.9167C11.9167 14.3745 12.6255 15.0833 13.5 15.0833V13.5833ZM13.4167 13.5C13.4167 13.454 13.454 13.4167 13.5 13.4167V11.9167C12.6255 11.9167 11.9167 12.6255 11.9167 13.5H13.4167ZM13.5 13.4167C13.546 13.4167 13.5833 13.454 13.5833 13.5H15.0833C15.0833 12.6255 14.3745 11.9167 13.5 11.9167V13.4167ZM13.1873 13.9374H13.8123V12.4374H13.1873V13.9374ZM13.1873 14.5624H13.8123V13.0624H13.1873V14.5624Z" fill="#807D7E"/>
</svg>
