<svg width="17" height="17" viewBox="0 0 17 17" fill="none" xmlns="http://www.w3.org/2000/svg">
<path d="M1.81901 15.7956L2.11448 15.3317L1.81901 15.7956ZM1.16349 14.9762L1.6728 14.7686L1.16349 14.9762ZM15.8365 14.9762L15.3272 14.7686L15.8365 14.9762ZM15.181 15.7956L14.8855 15.3317L15.181 15.7956ZM15.181 1.20436L14.8855 1.66826L15.181 1.20436ZM15.8365 2.02377L15.3272 2.23137L15.8365 2.02377ZM1.81901 1.20436L2.11448 1.66826L1.81901 1.20436ZM1.16349 2.02377L1.6728 2.23137L1.16349 2.02377ZM1 4.2C0.696243 4.2 0.45 4.44624 0.45 4.75C0.45 5.05376 0.696243 5.3 1 5.3V4.2ZM16 5.3C16.3038 5.3 16.55 5.05376 16.55 4.75C16.55 4.44624 16.3038 4.2 16 4.2V5.3ZM4 11.7C3.69624 11.7 3.45 11.9462 3.45 12.25C3.45 12.5538 3.69624 12.8 4 12.8V11.7ZM7 12.8C7.30376 12.8 7.55 12.5538 7.55 12.25C7.55 11.9462 7.30376 11.7 7 11.7V12.8ZM10 11.7C9.69624 11.7 9.45 11.9462 9.45 12.25C9.45 12.5538 9.69624 12.8 10 12.8V11.7ZM13 12.8C13.3038 12.8 13.55 12.5538 13.55 12.25C13.55 11.9462 13.3038 11.7 13 11.7V12.8ZM3.4 1.55H13.6V0.45H3.4V1.55ZM15.45 4V13H16.55V4H15.45ZM13.6 15.45H3.4V16.55H13.6V15.45ZM1.55 13V4H0.45V13H1.55ZM3.4 15.45C2.96865 15.45 2.68643 15.4493 2.47068 15.4273C2.26605 15.4064 2.17513 15.3704 2.11448 15.3317L1.52355 16.2595C1.78376 16.4253 2.0633 16.4914 2.35892 16.5216C2.64344 16.5507 2.99127 16.55 3.4 16.55V15.45ZM0.45 13C0.45 13.5178 0.449726 13.9326 0.471607 14.2674C0.493726 14.6058 0.540294 14.9045 0.654177 15.1838L1.6728 14.7686C1.6232 14.6469 1.58802 14.4825 1.56927 14.1956C1.55027 13.9051 1.55 13.5323 1.55 13H0.45ZM2.11448 15.3317C1.9413 15.2214 1.77979 15.0311 1.6728 14.7686L0.654177 15.1838C0.834814 15.627 1.13224 16.0103 1.52355 16.2595L2.11448 15.3317ZM15.45 13C15.45 13.5323 15.4497 13.9051 15.4307 14.1956C15.412 14.4825 15.3768 14.6469 15.3272 14.7686L16.3458 15.1838C16.4597 14.9045 16.5063 14.6058 16.5284 14.2674C16.5503 13.9326 16.55 13.5178 16.55 13H15.45ZM13.6 16.55C14.0087 16.55 14.3566 16.5507 14.6411 16.5216C14.9367 16.4914 15.2162 16.4253 15.4764 16.2595L14.8855 15.3317C14.8249 15.3704 14.734 15.4064 14.5293 15.4273C14.3136 15.4493 14.0313 15.45 13.6 15.45V16.55ZM15.3272 14.7686C15.2202 15.0311 15.0587 15.2214 14.8855 15.3317L15.4764 16.2595C15.8678 16.0103 16.1652 15.627 16.3458 15.1838L15.3272 14.7686ZM13.6 1.55C14.0314 1.55 14.3136 1.55067 14.5293 1.5727C14.734 1.5936 14.8249 1.62963 14.8855 1.66826L15.4764 0.740463C15.2162 0.574734 14.9367 0.508583 14.6411 0.478391C14.3566 0.449334 14.0087 0.45 13.6 0.45V1.55ZM16.55 4C16.55 3.48222 16.5503 3.06741 16.5284 2.73263C16.5063 2.39423 16.4597 2.09555 16.3458 1.81616L15.3272 2.23137C15.3768 2.35307 15.412 2.51746 15.4307 2.80438C15.4497 3.09492 15.45 3.46768 15.45 4H16.55ZM14.8855 1.66826C15.0587 1.77856 15.2202 1.96891 15.3272 2.23137L16.3458 1.81616C16.1652 1.37301 15.8678 0.989693 15.4764 0.740463L14.8855 1.66826ZM3.4 0.45C2.99127 0.45 2.64344 0.449334 2.35892 0.478391C2.0633 0.508583 1.78376 0.574734 1.52355 0.740463L2.11448 1.66826C2.17513 1.62963 2.26605 1.5936 2.47068 1.5727C2.68643 1.55067 2.96865 1.55 3.4 1.55V0.45ZM1.55 4C1.55 3.46768 1.55027 3.09492 1.56927 2.80438C1.58802 2.51746 1.6232 2.35307 1.6728 2.23137L0.654177 1.81616C0.540294 2.09555 0.493726 2.39423 0.471607 2.73263C0.449726 3.06741 0.45 3.48222 0.45 4H1.55ZM1.52355 0.740463C1.13224 0.989693 0.834814 1.37301 0.654177 1.81616L1.6728 2.23137C1.77979 1.96892 1.9413 1.77856 2.11448 1.66826L1.52355 0.740463ZM1 5.3H16V4.2H1V5.3ZM4 12.8H7V11.7H4V12.8ZM10 12.8H13V11.7H10V12.8Z" fill="#3C4242"/>
</svg>
