<svg width="18" height="18" viewBox="0 0 18 18" fill="none" xmlns="http://www.w3.org/2000/svg">
<path d="M3.11667 8.11111C3.11667 8.41487 3.36291 8.66111 3.66667 8.66111C3.97042 8.66111 4.21667 8.41487 4.21667 8.11111H3.11667ZM14.8833 9.88889C14.8833 9.58513 14.6371 9.33889 14.3333 9.33889C14.0296 9.33889 13.7833 9.58513 13.7833 9.88889H14.8833ZM16.5974 12.0414C16.8044 12.2638 17.1524 12.2762 17.3748 12.0692C17.5971 11.8622 17.6095 11.5142 17.4026 11.2919L16.5974 12.0414ZM14.6476 9.13983L14.245 9.51459L14.245 9.51459L14.6476 9.13983ZM14.0191 9.13983L14.4216 9.51459L14.4216 9.51459L14.0191 9.13983ZM11.2641 11.2919C11.0571 11.5142 11.0696 11.8622 11.2919 12.0692C11.5142 12.2762 11.8622 12.2638 12.0692 12.0414L11.2641 11.2919ZM6.73589 6.7081C6.94287 6.48577 6.93042 6.13775 6.7081 5.93078C6.48577 5.7238 6.13775 5.73624 5.93078 5.95857L6.73589 6.7081ZM3.98094 8.86017L3.57838 8.48541L3.57838 8.48541L3.98094 8.86017ZM3.3524 8.86017L3.75495 8.48541L3.75495 8.48541L3.3524 8.86017ZM1.40256 5.95857C1.19558 5.73624 0.84756 5.7238 0.625235 5.93078C0.40291 6.13775 0.390467 6.48577 0.597444 6.7081L1.40256 5.95857ZM4.89444 15.2222C4.89444 15.9003 4.34475 16.45 3.66667 16.45V17.55C4.95226 17.55 5.99444 16.5078 5.99444 15.2222H4.89444ZM3.66667 16.45C2.98858 16.45 2.43889 15.9003 2.43889 15.2222H1.33889C1.33889 16.5078 2.38107 17.55 3.66667 17.55V16.45ZM2.43889 15.2222C2.43889 14.5441 2.98858 13.9944 3.66667 13.9944V12.8944C2.38107 12.8944 1.33889 13.9366 1.33889 15.2222H2.43889ZM3.66667 13.9944C4.34475 13.9944 4.89444 14.5441 4.89444 15.2222H5.99444C5.99444 13.9366 4.95226 12.8944 3.66667 12.8944V13.9944ZM15.5611 2.77778C15.5611 3.45586 15.0114 4.00556 14.3333 4.00556V5.10556C15.6189 5.10556 16.6611 4.06337 16.6611 2.77778H15.5611ZM14.3333 4.00556C13.6553 4.00556 13.1056 3.45586 13.1056 2.77778H12.0056C12.0056 4.06337 13.0477 5.10556 14.3333 5.10556V4.00556ZM13.1056 2.77778C13.1056 2.09969 13.6553 1.55 14.3333 1.55V0.45C13.0477 0.45 12.0056 1.49218 12.0056 2.77778H13.1056ZM14.3333 1.55C15.0114 1.55 15.5611 2.09969 15.5611 2.77778H16.6611C16.6611 1.49218 15.6189 0.45 14.3333 0.45V1.55ZM12.5556 2.22778H5.44444V3.32778H12.5556V2.22778ZM3.11667 4.55556V8.11111H4.21667V4.55556H3.11667ZM5.44444 2.22778C4.15885 2.22778 3.11667 3.26996 3.11667 4.55556H4.21667C4.21667 3.87747 4.76636 3.32778 5.44444 3.32778V2.22778ZM5.44444 15.7722H12.5556V14.6722H5.44444V15.7722ZM14.8833 13.4444V9.88889H13.7833V13.4444H14.8833ZM12.5556 15.7722C13.8412 15.7722 14.8833 14.73 14.8833 13.4444H13.7833C13.7833 14.1225 13.2336 14.6722 12.5556 14.6722V15.7722ZM17.4026 11.2919L15.0502 8.76506L14.245 9.51459L16.5974 12.0414L17.4026 11.2919ZM13.6165 8.76506L11.2641 11.2919L12.0692 12.0414L14.4216 9.51459L13.6165 8.76506ZM15.0502 8.76506C14.6591 8.34498 14.0076 8.34498 13.6165 8.76506L14.4216 9.51459C14.4045 9.53299 14.3725 9.55 14.3333 9.55C14.2942 9.55 14.2622 9.53299 14.245 9.51459L15.0502 8.76506ZM5.93078 5.95857L3.57838 8.48541L4.38349 9.23494L6.73589 6.7081L5.93078 5.95857ZM3.75495 8.48541L1.40256 5.95857L0.597444 6.7081L2.94984 9.23494L3.75495 8.48541ZM3.57838 8.48541C3.59551 8.46701 3.62753 8.45 3.66667 8.45C3.7058 8.45 3.73782 8.46701 3.75495 8.48541L2.94984 9.23494C3.34092 9.65502 3.99241 9.65502 4.38349 9.23494L3.57838 8.48541Z" fill="#3C4242"/>
</svg>
