<svg width="16" height="16" viewBox="0 0 16 16" fill="none" xmlns="http://www.w3.org/2000/svg">
<path d="M7.79358 3.79554C5.58249 3.79554 3.79901 5.57901 3.79901 7.79011C3.79901 10.0012 5.58249 11.7847 7.79358 11.7847C10.0047 11.7847 11.7882 10.0012 11.7882 7.79011C11.7882 5.57901 10.0047 3.79554 7.79358 3.79554ZM7.79358 10.3871C6.36472 10.3871 5.19659 9.22245 5.19659 7.79011C5.19659 6.35776 6.36124 5.19312 7.79358 5.19312C9.22593 5.19312 10.3906 6.35776 10.3906 7.79011C10.3906 9.22245 9.22245 10.3871 7.79358 10.3871V10.3871ZM12.8833 3.63214C12.8833 4.15015 12.4661 4.56386 11.9516 4.56386C11.4335 4.56386 11.0198 4.14667 11.0198 3.63214C11.0198 3.11761 11.437 2.70042 11.9516 2.70042C12.4661 2.70042 12.8833 3.11761 12.8833 3.63214ZM15.5289 4.57776C15.4698 3.32968 15.1848 2.22413 14.2704 1.31327C13.3596 0.402412 12.254 0.117334 11.0059 0.0547559C9.7196 -0.018252 5.86409 -0.018252 4.57776 0.0547559C3.33315 0.113857 2.22761 0.398935 1.31327 1.30979C0.398936 2.22065 0.117334 3.3262 0.0547559 4.57429C-0.018252 5.86061 -0.018252 9.71612 0.0547559 11.0024C0.113857 12.2505 0.398936 13.3561 1.31327 14.2669C2.22761 15.1778 3.32968 15.4629 4.57776 15.5255C5.86409 15.5985 9.7196 15.5985 11.0059 15.5255C12.254 15.4664 13.3596 15.1813 14.2704 14.2669C15.1813 13.3561 15.4664 12.2505 15.5289 11.0024C15.6019 9.71612 15.6019 5.86409 15.5289 4.57776V4.57776ZM13.8671 12.3826C13.596 13.0641 13.071 13.589 12.3861 13.8637C11.3605 14.2704 8.92694 14.1766 7.79358 14.1766C6.66023 14.1766 4.22315 14.2669 3.20105 13.8637C2.51964 13.5925 1.99468 13.0675 1.72003 12.3826C1.31327 11.3571 1.40714 8.92347 1.40714 7.79011C1.40714 6.65675 1.31675 4.21968 1.72003 3.19757C1.9912 2.51616 2.51616 1.9912 3.20105 1.71655C4.22663 1.30979 6.66023 1.40366 7.79358 1.40366C8.92694 1.40366 11.364 1.31327 12.3861 1.71655C13.0675 1.98772 13.5925 2.51269 13.8671 3.19757C14.2739 4.22315 14.18 6.65675 14.18 7.79011C14.18 8.92347 14.2739 11.3605 13.8671 12.3826Z" fill="#2A2F2F"/>
</svg>
