<svg width="24" height="45" viewBox="0 0 24 45" fill="none" xmlns="http://www.w3.org/2000/svg">
<path fill-rule="evenodd" clip-rule="evenodd" d="M23.3664 43.5724C23.2081 43.7302 23.02 43.8555 22.8129 43.9409C22.6058 44.0263 22.3838 44.0703 22.1596 44.0703C21.9354 44.0703 21.7134 44.0263 21.5063 43.9409C21.2992 43.8555 21.1111 43.7302 20.9528 43.5724L0.498233 23.2353C0.339495 23.0778 0.213554 22.8908 0.127623 22.6849C0.0416922 22.479 -0.00254024 22.2583 -0.00254022 22.0354C-0.0025402 21.8124 0.0416923 21.5917 0.127623 21.3858C0.213554 21.1799 0.339495 20.9929 0.498233 20.8355L20.9528 0.498308C21.2728 0.180077 21.707 0.00129766 22.1596 0.0012977C22.6122 0.00129774 23.0463 0.180077 23.3664 0.498308C23.6865 0.81654 23.8663 1.24815 23.8663 1.6982C23.8663 2.14825 23.6865 2.57986 23.3664 2.89809L4.11528 22.0354L23.3664 41.1726C23.5252 41.3301 23.6511 41.5171 23.737 41.723C23.823 41.9289 23.8672 42.1496 23.8672 42.3725C23.8672 42.5954 23.823 42.8162 23.737 43.0221C23.6511 43.228 23.5252 43.415 23.3664 43.5724V43.5724Z" fill="white"/>
</svg>
