<svg width="14" height="13" viewBox="0 0 14 13" fill="none" xmlns="http://www.w3.org/2000/svg">
<path d="M3.471 3.97206V13H1.05966V3.97206H3.471ZM0.909469 1.61912C0.909469 1.26869 1.03184 0.979437 1.27659 0.751374C1.52134 0.523312 1.84953 0.40928 2.26116 0.40928C2.66722 0.40928 2.99263 0.523312 3.23738 0.751374C3.48769 0.979437 3.61284 1.26869 3.61284 1.61912C3.61284 1.96956 3.48769 2.25881 3.23738 2.48687C2.99263 2.71494 2.66722 2.82897 2.26116 2.82897C1.84953 2.82897 1.52134 2.71494 1.27659 2.48687C1.03184 2.25881 0.909469 1.96956 0.909469 1.61912ZM8.15151 5.89947V13H5.74851V3.97206H8.00132L8.15151 5.89947ZM7.80107 8.16897H7.15026C7.15026 7.50147 7.23648 6.90072 7.40892 6.36672C7.58135 5.82716 7.82332 5.36825 8.13482 4.99C8.44632 4.60619 8.81623 4.31416 9.24454 4.11391C9.67842 3.90809 10.1624 3.80519 10.6964 3.80519C11.1191 3.80519 11.5057 3.86637 11.8561 3.98875C12.2066 4.11112 12.5069 4.30581 12.7573 4.57281C13.0131 4.83981 13.2078 5.19303 13.3413 5.63247C13.4804 6.07191 13.5499 6.60869 13.5499 7.24281V13H11.1302V7.23447C11.1302 6.83397 11.0746 6.52247 10.9634 6.29997C10.8521 6.07747 10.688 5.92172 10.4711 5.83272C10.2597 5.73816 9.99826 5.69087 9.68676 5.69087C9.36414 5.69087 9.08323 5.75484 8.84404 5.88278C8.61042 6.01072 8.41573 6.18872 8.25998 6.41678C8.10979 6.63928 7.99576 6.90072 7.91789 7.20109C7.84001 7.50147 7.80107 7.82409 7.80107 8.16897Z" fill="#2A2F2F"/>
</svg>
