<svg width="93" height="45" viewBox="0 0 93 45" fill="none" xmlns="http://www.w3.org/2000/svg">
<path d="M3.89181 27.3907C4.15793 27.3408 4.45732 27.3076 4.78997 27.3076C4.83987 25.5611 5.83783 22.6671 6.90231 19.6732C5.90436 19.5235 5.05609 19.5235 4.54048 19.8728C4.17456 18.4257 5.55507 18.143 7.45119 18.1763C8.43251 15.3986 9.38057 12.6875 9.58016 10.8745C8.00006 10.7747 6.60293 10.9411 5.7214 11.939C5.43864 12.2384 4.67354 8.46282 8.13312 7.83078C10.944 7.31517 16.9318 9.61047 18.8113 6.96588C19.094 6.58333 19.3269 10.0429 17.4474 10.9743C16.2498 11.5565 14.6697 11.49 13.0231 11.2904C12.7903 12.8871 11.9254 15.5317 11.0272 18.4091C12.9898 18.5422 14.7196 18.5255 15.0856 17.5941C15.6677 21.0703 13.1894 20.9539 10.4284 20.3884C9.66332 22.9498 8.94812 25.5445 8.682 27.6568C11.0937 27.9396 13.5055 28.0394 14.5699 26.5258C14.8527 26.1433 15.0856 29.6029 13.2061 30.5177C9.91281 32.1476 3.84191 28.8211 1.48008 31.4823C1.19733 31.7817 0.432228 28.0061 3.89181 27.3907ZM17.9131 17.1617C17.8965 17.0951 21.5889 16.7625 21.5224 18.8915C21.4725 20.2553 18.279 27.241 18.9443 29.4864C20.5743 27.4074 24.9154 17.1617 24.9154 17.1617C24.8988 17.0951 28.5912 16.7625 28.5081 18.8915C28.4582 20.272 25.6639 25.8439 25.9466 29.5862C27.2274 28.239 28.7742 24.5299 29.0569 23.8313C29.0902 23.7648 29.1567 23.7316 29.2233 23.7316C29.3563 23.7316 29.4395 23.848 29.4062 23.9644C29.007 25.1952 27.3438 30.2682 26.4789 30.7838C25.4809 31.3992 22.7698 30.368 22.5203 29.2369C22.038 27.1412 24.0672 22.1515 24.7491 19.141C23.4185 22.6172 20.3415 30.4179 19.277 30.8836C18.2956 31.2994 15.6344 30.4511 15.4182 29.1205C15.019 26.7088 18.4287 19.0911 17.9131 17.1617ZM25.3146 38.9171C24.6327 34.7257 30.9863 20.6213 30.321 17.1284C30.3044 17.0619 34.1465 17.1284 33.9137 19.2407C33.6974 21.2533 30.8366 29.187 29.4894 35.0916C31.9011 26.1433 36.5416 17.6773 37.2568 17.2615C37.9055 16.8789 39.9014 17.4444 40.7164 18.8748C41.8142 20.8042 39.4856 30.1185 35.6268 30.9002C34.7619 31.0832 32.7161 29.8025 32.3003 29.2868C30.8699 32.9626 29.5393 37.0709 28.9073 40.8631C28.8241 41.2623 25.5974 40.6469 25.3146 38.9171ZM37.6061 18.3093C37.3899 18.2262 34.8285 22.8667 32.4833 28.8045C35.5603 30.5343 38.3878 18.6253 37.6061 18.3093ZM40.3837 28.9875C39.7018 24.7794 46.1386 10.1926 45.7062 7.08231C45.6896 7.01578 49.2157 7.19874 48.9828 9.31108C48.75 11.49 45.3735 20.6712 44.2425 26.6589C45.8559 22.6671 48.6668 16.9621 50.2802 17.1118C51.2116 17.1949 53.0911 18.0765 53.2574 18.642C53.7231 20.2054 50.4631 27.3408 50.3966 29.7027C51.6939 28.4552 53.3239 24.5465 53.6067 23.8313C53.6399 23.7648 53.7065 23.7316 53.773 23.7316C53.9061 23.7316 53.9892 23.848 53.956 23.9644C53.5568 25.1952 51.7272 30.8337 50.9954 30.9335C49.5483 31.1331 47.1033 30.0852 46.9037 28.7712C46.6542 26.9915 49.4984 21.22 49.7812 18.4257C48.9495 18.2927 43.9431 28.3055 43.9764 30.8836C44.0762 31.3493 40.6831 30.7505 40.3837 28.9875ZM53.4071 28.7546C52.4258 25.977 54.6545 19.0245 57.1661 17.4112C58.0309 16.8457 60.3761 16.9953 61.1246 17.4943C61.7733 17.9101 61.3575 18.3093 61.3575 18.3093C58.6464 17.0452 55.4529 28.8211 56.7003 29.9688C58.1474 31.2994 61.5903 20.405 59.5113 19.9726C59.5113 19.9726 60.4759 18.6087 61.3076 18.7085C64.185 19.0911 62.0061 28.871 57.9811 30.7671C56.8833 31.2828 54.272 31.183 53.4071 28.7546ZM62.1226 29.1538C61.6901 26.5092 64.9667 19.0578 64.4345 17.1284C64.4179 17.0619 68.3099 16.7625 68.2434 18.8915C68.1935 20.089 66.0811 24.4468 65.7152 28.0228C66.9793 24.0975 69.8734 16.9454 71.6697 17.1118C72.6011 17.1949 74.2311 17.96 74.3974 18.5089C74.6137 19.2407 72.3849 22.7336 72.9837 24.8958C68.0271 24.6796 71.2372 19.0744 71.1707 18.4257C70.3391 18.2927 65.8815 28.2057 65.8982 30.8004C65.9148 30.9002 65.7984 30.9667 65.7152 30.9501C65 30.8669 62.3388 30.4844 62.1226 29.1538ZM79.3539 16.8623C74.597 16.2302 77.6242 13.5524 77.4246 11.7893C82.5807 12.621 78.9381 14.4007 79.3539 16.8623ZM72.967 29.1538C72.5013 26.609 75.9276 19.0578 75.412 17.1284C75.3954 17.0619 79.2542 16.7625 79.1876 18.8915C79.1377 20.272 76.3767 25.7607 76.6096 29.5031C77.8736 28.0893 79.3706 24.5133 79.6533 23.8313C79.67 23.7648 79.7365 23.7316 79.8197 23.7316C79.9361 23.7316 80.0193 23.848 79.986 23.9644C79.6034 25.1952 77.7905 30.5177 76.9921 30.9002C76.1771 31.2661 73.1833 30.4012 72.967 29.1538ZM82.9133 30.8836C82.3146 31.2994 79.6201 30.5676 79.0047 29.4532C78.2063 28.0228 80.2022 20.7709 82.0318 18.4257C83.4622 16.6128 86.5559 17.0619 87.2877 17.4943C87.4707 17.5941 87.5372 17.6939 87.4374 17.9767C87.321 18.2927 87.0881 18.2262 86.7222 18.1264C84.8593 17.644 82.0651 27.8564 82.248 29.9355L88.1859 17.2947C88.3855 16.7459 91.9116 17.6606 91.5789 18.3592C91.2463 19.0578 88.8179 27.3408 88.7514 29.7027C90.0487 28.4552 91.6953 24.5465 91.9781 23.8313C92.0114 23.7648 92.0779 23.7316 92.1444 23.7316C92.2609 23.7316 92.3606 23.848 92.3108 23.9644C91.9282 25.1952 90.0986 30.8337 89.3668 30.9335C87.9031 31.1331 85.4581 30.0852 85.2752 28.7712C85.1088 27.6568 86.0236 24.2139 86.8719 21.3864C85.4082 25.1786 83.246 30.6507 82.9133 30.8836Z" fill="#3C4242"/>
<path d="M1 33.625H23.4033" stroke="#333333" stroke-width="0.420324" stroke-miterlimit="10" stroke-linecap="round" stroke-linejoin="round"/>
<path d="M32.9844 33.625H92.0348" stroke="#3C4242" stroke-width="0.420324" stroke-miterlimit="10" stroke-linecap="round" stroke-linejoin="round"/>
<path d="M40.9522 41.2578C40.7886 41.2578 40.5996 41.1933 40.3838 41.065C40.1687 40.936 39.9398 40.7655 39.6986 40.5527C39.4574 40.3399 39.2201 40.1087 38.9858 39.8583C38.7523 39.6087 38.5364 39.3598 38.3398 39.1117C38.1431 38.8643 37.978 38.6439 37.8443 38.4511L36.7643 40.7824C36.7121 40.8961 36.6307 40.9767 36.5193 41.0236C36.4079 41.0704 36.2873 41.0988 36.1575 41.1088C36.0277 41.1188 35.8994 41.1234 35.7734 41.1234C35.8695 40.9852 35.9685 40.8262 36.0684 40.6479C36.169 40.4697 36.2873 40.2547 36.4248 40.0019C36.5623 39.7492 36.7236 39.4427 36.9095 39.0809C37.0954 38.7199 37.3159 38.2875 37.5724 37.7851C37.8282 37.2827 38.1308 36.6928 38.4803 36.0146C38.5026 35.9746 38.5326 35.9193 38.5694 35.8479C38.6063 35.7764 38.6255 35.7104 38.6255 35.6512C38.6255 35.5967 38.6071 35.5537 38.5694 35.5214C38.5326 35.4892 38.4619 35.473 38.3582 35.473C38.18 35.473 38.0072 35.5214 37.8405 35.6174C37.6738 35.7134 37.5248 35.8363 37.395 35.9854C37.2652 36.1336 37.163 36.2872 37.0885 36.4455C37.014 36.6037 36.9771 36.7451 36.9771 36.8687C36.9771 36.9632 36.9955 37.0469 37.0324 37.1214C36.7874 37.1214 36.6145 37.0807 36.5147 36.9993C36.4141 36.9179 36.3641 36.8173 36.3641 36.6982C36.3641 36.53 36.4379 36.3618 36.5869 36.1935C36.7351 36.0253 36.9264 35.8701 37.1607 35.7296C37.395 35.5882 37.64 35.4761 37.8958 35.3916C38.1516 35.3079 38.3836 35.2656 38.5917 35.2656C38.7922 35.2656 38.9274 35.3025 38.9981 35.377C39.0687 35.4515 39.1041 35.5329 39.1041 35.622C39.1041 35.6766 39.0949 35.7311 39.0764 35.7857C39.058 35.8402 39.0372 35.8924 39.015 35.9416L38.0794 37.961C38.1831 37.8619 38.319 37.7705 38.4857 37.686C38.6524 37.6023 38.8368 37.5055 39.0372 37.3964C39.3714 37.2182 39.7293 37.0101 40.1119 36.7727C40.4944 36.5354 40.86 36.2849 41.2088 36.023C41.5575 35.7603 41.8471 35.5084 42.0775 35.2656C42.1144 35.2956 42.1405 35.347 42.1559 35.4216C42.1705 35.4961 42.1781 35.5529 42.1781 35.5921C42.1781 35.7457 42.0837 35.9139 41.8939 36.0967C41.7042 36.2796 41.4576 36.4693 41.1535 36.6644C40.8493 36.8603 40.5151 37.0531 40.151 37.2436C39.7869 37.4341 39.429 37.6138 39.0764 37.782C38.7238 37.9503 38.4058 38.0962 38.1239 38.2199C38.3467 38.4726 38.5641 38.7122 38.7753 38.9404C38.9865 39.1677 39.217 39.3905 39.4659 39.6087C39.7147 39.8268 40.0059 40.0496 40.34 40.2769C40.6741 40.5043 41.0789 40.7493 41.5537 41.012C41.5014 41.0766 41.42 41.1334 41.3086 41.1826C41.1972 41.2333 41.0782 41.2578 40.9522 41.2578Z" fill="#3C4242"/>
<path d="M46.9074 40.9747C46.4542 40.9747 46.1185 40.8833 45.8996 40.6997C45.6807 40.5169 45.5709 40.2964 45.5709 40.0391C45.2513 40.321 44.8842 40.5415 44.4686 40.6997C44.053 40.8579 43.6329 40.9371 43.2104 40.9371C42.7572 40.9371 42.4177 40.8541 42.1911 40.6882C41.9645 40.5223 41.8516 40.318 41.8516 40.076C41.8516 39.8532 41.9353 39.6182 42.102 39.3708C42.2694 39.1235 42.4922 38.8908 42.7703 38.6726C43.0483 38.4552 43.3548 38.2778 43.6889 38.1418C44.0231 38.0059 44.3534 37.9375 44.6806 37.9375C44.8511 37.9375 45.0094 37.9675 45.1538 38.0266C45.299 38.0857 45.3712 38.2071 45.3712 38.3907C45.3712 38.5789 45.2874 38.7556 45.1207 38.9215C44.9541 39.0874 44.7344 39.2349 44.464 39.3632C44.1928 39.4922 43.8956 39.5967 43.573 39.6789C43.2503 39.7611 42.9285 39.811 42.6097 39.831C42.5951 39.8809 42.5836 39.9277 42.5759 39.9723C42.5682 40.0168 42.5644 40.0591 42.5644 40.0983C42.5644 40.1974 42.5905 40.2949 42.6427 40.3917C42.6942 40.4885 42.7833 40.5676 42.9101 40.629C43.036 40.6913 43.2142 40.722 43.4447 40.722C43.838 40.722 44.2282 40.629 44.6145 40.4439C45.0001 40.258 45.3381 40.0291 45.6277 39.7572C45.6945 39.5544 45.8136 39.3516 45.9841 39.1481C46.1547 38.9453 46.3613 38.7609 46.6025 38.595C46.8437 38.4291 47.1056 38.2955 47.3875 38.1941C47.6694 38.0927 47.9559 38.042 48.2455 38.042C48.416 38.042 48.5743 38.0719 48.7187 38.1311C48.8631 38.1902 48.9361 38.3116 48.9361 38.4952C48.9361 38.7479 48.8078 38.9691 48.552 39.1596C48.2962 39.3501 47.9675 39.5022 47.5665 39.6166C47.1655 39.7303 46.7538 39.8025 46.3306 39.8317C46.316 39.8816 46.3044 39.9285 46.2968 39.9731C46.2891 40.0176 46.2852 40.0599 46.2852 40.099C46.2852 40.1981 46.309 40.2995 46.3574 40.4032C46.4058 40.5069 46.4911 40.5922 46.6132 40.659C46.7361 40.7258 46.912 40.7589 47.1425 40.7589C47.462 40.7589 47.7808 40.6959 48.1003 40.5699C48.4199 40.4439 48.7164 40.278 48.9914 40.0721C49.2664 39.8671 49.496 39.6451 49.6819 39.4077L49.8156 39.4745C49.6151 39.7718 49.357 40.033 49.0413 40.258C48.7256 40.4831 48.3846 40.659 48.0166 40.785C47.6479 40.9117 47.2784 40.9747 46.9074 40.9747ZM42.6642 39.6896C42.8647 39.6451 43.0913 39.5798 43.3433 39.493C43.596 39.4062 43.8387 39.304 44.073 39.1849C44.3073 39.0659 44.5001 38.9353 44.6522 38.7917C44.8043 38.648 44.8803 38.4975 44.8803 38.3385C44.8803 38.2839 44.8657 38.2417 44.8358 38.2125C44.8058 38.1825 44.7428 38.1679 44.6468 38.1679C44.4686 38.1679 44.2789 38.214 44.0784 38.3054C43.8779 38.3968 43.6851 38.5167 43.4992 38.6657C43.3133 38.8139 43.1466 38.9776 42.9976 39.1558C42.8494 39.3332 42.738 39.5114 42.6642 39.6896ZM46.3843 39.6896C46.5848 39.6451 46.8037 39.5859 47.0419 39.5114C47.2792 39.4369 47.5058 39.3493 47.7216 39.2479C47.9367 39.1465 48.1149 39.0306 48.2563 38.8992C48.3968 38.7679 48.4675 38.6234 48.4675 38.4652C48.4675 38.4107 48.4491 38.3646 48.4114 38.3277C48.3746 38.2908 48.3077 38.2724 48.211 38.2724C47.9736 38.2724 47.7339 38.3415 47.4927 38.4806C47.2516 38.6188 47.0326 38.7963 46.8352 39.0114C46.6386 39.2257 46.488 39.4523 46.3843 39.6896Z" fill="#3C4242"/>
<path d="M48.7519 42.693C48.6928 42.693 48.6352 42.6722 48.5791 42.63C48.523 42.5877 48.4808 42.5432 48.4508 42.4963C48.4208 42.4495 48.4062 42.4211 48.4062 42.4111C48.5099 42.1684 48.6121 41.9517 48.7127 41.7612C48.8134 41.5707 48.9132 41.3749 49.0138 41.1744C49.1137 40.9739 49.2128 40.7388 49.3088 40.4692C49.4056 40.1996 49.5054 39.8639 49.6099 39.463C49.7136 39.062 49.8181 38.5643 49.9218 37.9705C49.9295 37.9259 49.9441 37.8937 49.9663 37.8737C49.9886 37.8537 50.0439 37.8438 50.133 37.8438C50.3258 37.8438 50.4633 37.8799 50.5455 37.9513C50.6269 38.0227 50.6676 38.1011 50.6676 38.1848C50.6676 38.2539 50.6454 38.3776 50.6008 38.5558C50.5563 38.734 50.4933 38.9445 50.4118 39.1872C50.5378 39.0236 50.6961 38.8577 50.885 38.6895C51.074 38.5212 51.2914 38.3799 51.5364 38.2662C51.7814 38.1525 52.0487 38.0957 52.3383 38.0957C52.6648 38.0957 52.9344 38.174 53.1456 38.3292C53.3569 38.4851 53.4629 38.6895 53.4629 38.9422C53.4629 39.135 53.3976 39.3393 53.2678 39.5544C53.138 39.7695 52.9559 39.973 52.7224 40.1635C52.4889 40.354 52.2116 40.5092 51.8928 40.6275C51.5733 40.7465 51.2207 40.8057 50.8351 40.8057C50.6415 40.8057 50.4864 40.7911 50.3673 40.7611C50.2482 40.7312 50.1891 40.702 50.1891 40.672C50.1891 40.6521 50.2167 40.6413 50.2728 40.6382C50.3289 40.6359 50.3934 40.6344 50.4679 40.6344C50.7652 40.6344 51.0486 40.586 51.3198 40.4892C51.5909 40.3924 51.8337 40.2649 52.0495 40.1067C52.2646 39.9484 52.4336 39.7725 52.5565 39.5797C52.6786 39.3869 52.7401 39.1964 52.7401 39.0082C52.7401 38.85 52.6901 38.7148 52.5895 38.6034C52.4897 38.4921 52.3276 38.4368 52.1048 38.4368C51.912 38.4368 51.7208 38.4775 51.531 38.5589C51.3413 38.6403 51.1631 38.7448 50.9964 38.8707C50.8289 38.9967 50.6807 39.1281 50.5509 39.264C50.4211 39.4 50.3227 39.5229 50.2559 39.6312C50.1223 40.0022 49.9886 40.3602 49.855 40.7043C49.7213 41.0484 49.593 41.3603 49.4709 41.6399C49.348 41.9195 49.2374 42.1484 49.1367 42.3266C49.0369 42.5048 48.9532 42.6139 48.8863 42.653C48.8479 42.6807 48.8034 42.693 48.7519 42.693Z" fill="#3C4242"/>
<path d="M57.5057 40.8054C57.2161 40.8054 57.0002 40.7447 56.8597 40.6233C56.7183 40.502 56.6484 40.3545 56.6484 40.1817C56.6484 40.068 56.6799 39.9243 56.7429 39.7507C56.8059 39.5779 56.8896 39.3958 56.9933 39.2053C57.097 39.0149 57.2176 38.8351 57.3551 38.6669C57.4926 38.4987 57.6393 38.3612 57.7953 38.2544C57.9512 38.1484 58.1033 38.0946 58.2523 38.0946C58.3191 38.0946 58.3767 38.1085 58.4251 38.1353C58.4735 38.1622 58.4973 38.2037 58.4973 38.2575C58.4973 38.3166 58.4397 38.4134 58.3245 38.5471C58.2093 38.6807 58.0741 38.8343 57.9182 39.0072C57.7622 39.1808 57.627 39.3621 57.5118 39.5525C57.3966 39.743 57.339 39.9251 57.339 40.0987C57.339 40.2769 57.3835 40.396 57.4726 40.4551C57.5617 40.5143 57.6992 40.5442 57.8851 40.5442C58.1378 40.5442 58.4067 40.4605 58.6924 40.2915C58.9782 40.1233 59.2808 39.8291 59.6004 39.4081L59.7002 39.4826C59.4852 39.9082 59.1748 40.2354 58.77 40.4628C58.3644 40.6917 57.9435 40.8054 57.5057 40.8054ZM58.8415 37.4048C58.7224 37.4048 58.6172 37.3849 58.5242 37.3457C58.4313 37.3058 58.3852 37.2443 58.3852 37.1598C58.3852 37.0561 58.4758 36.9655 58.6579 36.8887C58.8399 36.8118 59.0197 36.7734 59.1979 36.7734C59.3093 36.7734 59.3984 36.7911 59.4652 36.8257C59.532 36.8602 59.565 36.9202 59.565 37.0039C59.565 37.0976 59.489 37.1882 59.3369 37.275C59.1856 37.3618 59.0204 37.4048 58.8415 37.4048Z" fill="#3C4242"/>
<path d="M60.3346 40.9544C60.0151 40.9544 59.7701 40.8922 59.5995 40.7685C59.429 40.6449 59.3438 40.462 59.3438 40.2193C59.3438 40.0019 59.4052 39.7331 59.5273 39.4135C59.6495 39.094 59.8039 38.7668 59.9898 38.4296C59.9152 38.4196 59.8453 38.4111 59.7785 38.4034C59.7117 38.3958 59.6487 38.385 59.5896 38.3704V38.2367C59.6487 38.2414 59.7194 38.2467 59.8008 38.2513C59.8822 38.256 59.9752 38.2613 60.0789 38.2659C60.2348 37.9986 60.4022 37.7398 60.5797 37.4901C60.7579 37.2405 60.9346 37.0177 61.1089 36.8218C61.2833 36.6267 61.4507 36.47 61.6105 36.3541C61.7703 36.2381 61.9055 36.1797 62.0169 36.1797C62.076 36.1797 62.1298 36.1935 62.1782 36.2204C62.2266 36.2473 62.2504 36.2888 62.2504 36.3425C62.2504 36.427 62.1728 36.5638 62.0169 36.755C61.8609 36.9455 61.6681 37.1721 61.4377 37.434C61.2072 37.6968 60.9845 37.981 60.7694 38.2882C60.8362 38.2882 60.9046 38.2882 60.9753 38.2882C61.0459 38.2882 61.1143 38.2882 61.1811 38.2882C61.4262 38.2882 61.6843 38.2859 61.9554 38.2805C62.2266 38.2759 62.4993 38.2629 62.7742 38.2437V38.3773C62.3656 38.4073 62 38.4296 61.6773 38.4441C61.3547 38.4587 61.0667 38.4664 60.814 38.4664C60.784 38.4664 60.7564 38.4664 60.7302 38.4664C60.7041 38.4664 60.6765 38.4664 60.6465 38.4664C60.476 38.7291 60.3308 38.9987 60.2125 39.276C60.0934 39.5533 60.0343 39.8229 60.0343 40.0857C60.0343 40.2984 60.0827 40.4505 60.1787 40.5419C60.2747 40.6333 60.4345 40.6794 60.658 40.6794C61.0444 40.6794 61.4231 40.5657 61.7941 40.3376C62.1651 40.1102 62.4916 39.8007 62.7742 39.4097L62.9187 39.4842C62.7404 39.7615 62.5154 40.0111 62.245 40.2339C61.9738 40.4567 61.675 40.6326 61.3486 40.7608C61.0214 40.8899 60.6841 40.9544 60.3346 40.9544Z" fill="#3C4242"/>
<path d="M66.6459 41.0266C66.2895 41.0266 65.9922 40.9475 65.7549 40.7893C65.5175 40.631 65.3984 40.3937 65.3984 40.0764C65.3984 39.8291 65.4706 39.5879 65.6158 39.3521C65.7602 39.117 65.9515 38.9058 66.1896 38.7176C66.427 38.5294 66.6904 38.3796 66.98 38.2682C67.2696 38.1569 67.5554 38.1016 67.838 38.1016C68.1422 38.1016 68.3504 38.1607 68.4618 38.2798C68.5731 38.3988 68.6284 38.5225 68.6284 38.6508C68.6284 38.7944 68.5785 38.9204 68.4779 39.0295C68.378 39.1385 68.2421 39.1931 68.0715 39.1931C67.9456 39.1931 67.838 39.1562 67.7482 39.0817C67.8595 39.0425 67.9563 38.9619 68.0378 38.8405C68.1192 38.7191 68.1607 38.6039 68.1607 38.4948C68.1607 38.4357 68.1438 38.3896 68.1107 38.3574C68.0769 38.3251 68.0124 38.309 67.9156 38.309C67.7151 38.309 67.5093 38.3681 67.2973 38.4872C67.086 38.6062 66.8886 38.7591 66.7073 38.9473C66.5253 39.1355 66.377 39.3336 66.2618 39.541C66.1466 39.7492 66.089 39.9443 66.089 40.1279C66.089 40.2815 66.1451 40.4221 66.2564 40.5511C66.3678 40.6794 66.5829 40.7439 66.9024 40.7439C67.1997 40.7439 67.4985 40.6894 67.7989 40.5803C68.0992 40.4713 68.3796 40.3153 68.64 40.1125C68.8996 39.9098 69.1078 39.6716 69.2637 39.3997L69.4081 39.4742C69.2376 39.7715 69.0033 40.0373 68.7068 40.2723C68.4095 40.5074 68.0831 40.6917 67.7267 40.8254C67.3695 40.9598 67.0092 41.0266 66.6459 41.0266Z" fill="#3C4242"/>
<path d="M69.977 40.8354C69.6574 40.8354 69.4293 40.7624 69.2918 40.6164C69.1543 40.4705 69.0859 40.2885 69.0859 40.0711C69.0859 39.8337 69.1528 39.551 69.2864 39.2246C69.4201 38.8981 69.5967 38.554 69.8157 38.1922C70.0346 37.8312 70.2742 37.4786 70.5339 37.1337C70.7935 36.7896 71.0531 36.477 71.3135 36.1943C71.5732 35.9124 71.8128 35.6866 72.0317 35.5183C72.2507 35.3501 72.4235 35.2656 72.5495 35.2656C72.6309 35.2656 72.6977 35.2964 72.7499 35.3586C72.8022 35.4208 72.8429 35.4945 72.8728 35.5813C72.902 35.6681 72.9174 35.7457 72.9174 35.8148C72.9174 35.9485 72.8675 36.1229 72.7668 36.3387C72.667 36.5538 72.5256 36.7942 72.3436 37.0592C72.1615 37.3242 71.9465 37.5915 71.6976 37.8612C71.4487 38.1308 71.1776 38.3896 70.8849 38.637C70.5915 38.8843 70.2819 39.0971 69.9547 39.2753C69.9101 39.4089 69.8748 39.5388 69.8487 39.6655C69.8226 39.7915 69.8095 39.9121 69.8095 40.0258C69.8095 40.2186 69.8502 40.3622 69.9316 40.4567C70.0131 40.5504 70.136 40.598 70.2996 40.598C70.5001 40.598 70.699 40.5389 70.8957 40.4198C71.0923 40.3007 71.2782 40.151 71.4526 39.9705C71.6269 39.7899 71.7775 39.6033 71.9035 39.4097L72.0701 39.4689C71.7729 39.8898 71.4503 40.2224 71.1008 40.4674C70.7528 40.7132 70.3779 40.8354 69.977 40.8354ZM70.0553 39.0233C70.315 38.8497 70.5677 38.6508 70.8127 38.4257C71.0577 38.2007 71.2859 37.9664 71.4979 37.7244C71.7099 37.4817 71.8973 37.2466 72.0602 37.0193C72.223 36.7919 72.3497 36.5876 72.4388 36.4071C72.5279 36.2266 72.5725 36.0868 72.5725 35.9877C72.5725 35.9385 72.5633 35.9063 72.5448 35.8909C72.5264 35.8763 72.5095 35.8686 72.4949 35.8686C72.4358 35.8686 72.3336 35.9316 72.1884 36.0576C72.044 36.1835 71.875 36.3533 71.6815 36.5661C71.4887 36.7788 71.292 37.0216 71.0915 37.2935C70.8911 37.5654 70.6998 37.8504 70.5177 38.1477C70.3349 38.4442 70.1813 38.7368 70.0553 39.0233Z" fill="#3C4242"/>
<path d="M72.2148 40.9576C71.9844 40.9576 71.7893 40.9069 71.6303 40.8055C71.4705 40.7041 71.3906 40.5497 71.3906 40.3416C71.3906 40.1633 71.4498 39.9713 71.5688 39.7662C71.6871 39.5611 71.8507 39.3576 72.0589 39.1571C72.2671 38.9566 72.5029 38.7738 72.7664 38.6079C73.0298 38.442 73.3079 38.3098 73.6021 38.2107C73.8955 38.1117 74.1866 38.0625 74.4762 38.0625C74.7658 38.0625 75.007 38.1132 75.1998 38.2146C75.3926 38.316 75.4894 38.4512 75.4894 38.6194C75.4894 38.7431 75.4395 38.8276 75.3388 38.8721C75.2382 38.9167 75.1069 38.9389 74.9432 38.9389C74.9578 38.899 74.9709 38.856 74.9824 38.8091C74.9939 38.7623 74.9993 38.7193 74.9993 38.6793C74.9993 38.5656 74.9586 38.4681 74.8772 38.3859C74.795 38.3045 74.6544 38.2638 74.4539 38.2638C74.2458 38.2638 74.0345 38.3121 73.8187 38.4082C73.6036 38.5049 73.3955 38.6332 73.195 38.7945C72.9945 38.9558 72.8163 39.1302 72.6604 39.3184C72.5044 39.5066 72.3823 39.6925 72.2924 39.8753C72.2033 40.0581 72.1588 40.2217 72.1588 40.3654C72.1588 40.5582 72.2586 40.655 72.4599 40.655C72.6304 40.655 72.8163 40.602 73.0168 40.4952C73.2172 40.3892 73.4231 40.2525 73.6351 40.0865C73.8464 39.9206 74.0491 39.7486 74.2419 39.5703C74.4347 39.3921 74.606 39.2285 74.7543 39.0803C74.7835 39.0503 74.8027 39.0357 74.8096 39.0357C74.8541 39.0403 74.9118 39.0503 74.9824 39.0657C75.0531 39.0803 75.1145 39.1002 75.166 39.1248C75.2182 39.1494 75.2444 39.1817 75.2444 39.2216C75.2444 39.2662 75.2106 39.3268 75.1437 39.4037C75.0769 39.4805 75.0024 39.568 74.921 39.6671C74.8388 39.7662 74.765 39.8668 74.6982 39.9682C74.6314 40.0696 74.5984 40.1649 74.5984 40.254C74.5984 40.3285 74.6275 40.4015 74.6875 40.4729C74.7466 40.5451 74.8434 40.5804 74.977 40.5804C75.1775 40.5804 75.441 40.4829 75.7675 40.287C76.0939 40.0919 76.425 39.7985 76.7591 39.4067L76.8705 39.4812C76.7146 39.7486 76.5141 39.9836 76.269 40.1864C76.024 40.3892 75.7621 40.5482 75.484 40.6619C75.206 40.7755 74.9325 40.8324 74.6652 40.8324C74.3902 40.8324 74.1882 40.7779 74.0584 40.6688C73.9285 40.5597 73.8633 40.4414 73.8633 40.3124C73.8633 40.2824 73.8671 40.2494 73.8748 40.2125C73.8817 40.1756 73.8894 40.1372 73.897 40.0973C73.5775 40.3846 73.2864 40.5996 73.0229 40.7433C72.7587 40.8862 72.4891 40.9576 72.2148 40.9576Z" fill="#3C4242"/>
<path d="M77.7051 40.9919C77.3564 40.9919 77.0799 40.9412 76.8755 40.8398C76.6712 40.7384 76.5268 40.6132 76.4408 40.4649C76.3555 40.3167 76.3125 40.1677 76.3125 40.0194C76.3125 39.8712 76.3425 39.7567 76.4016 39.6776C76.4615 39.5985 76.5337 39.5393 76.619 39.4994C76.7042 39.4595 76.7857 39.4303 76.864 39.4103C76.9424 39.3903 76.9954 39.3704 77.0253 39.3511C77.2481 39.1875 77.4524 39.017 77.6383 38.8388C77.8242 38.6606 77.987 38.4724 78.1284 38.2742V38.1851C78.1284 38.0023 78.1745 37.8717 78.2674 37.7949C78.3603 37.7181 78.4587 37.6797 78.5624 37.6797C78.6215 37.6797 78.6661 37.6897 78.696 37.7096C78.726 37.7296 78.7406 37.7519 78.7406 37.7765C78.7406 37.8011 78.7298 37.841 78.7075 37.8955C78.6853 37.9501 78.6737 38.0192 78.6737 38.1037C78.6737 38.2673 78.7221 38.444 78.8182 38.6345C78.9149 38.825 79.011 39.0255 79.1077 39.2359C79.2038 39.4464 79.2522 39.6653 79.2522 39.8927C79.2522 39.9572 79.2468 40.0202 79.2353 40.0816C79.2245 40.1439 79.2076 40.2015 79.1853 40.256C79.445 40.2261 79.69 40.1485 79.9204 40.0225C80.1509 39.8965 80.3736 39.6945 80.5887 39.4172L80.6886 39.4917C80.5472 39.7636 80.336 39.9703 80.0541 40.1116C79.7722 40.2529 79.4634 40.3405 79.1292 40.3751C79.0102 40.5878 78.8228 40.7438 78.567 40.8429C78.312 40.9427 78.0239 40.9919 77.7051 40.9919ZM77.7274 40.7323C77.8165 40.7323 77.9356 40.7123 78.0838 40.6731C78.2321 40.6332 78.3473 40.5318 78.4295 40.3689C78.1176 40.3298 77.8411 40.2476 77.5999 40.1239C77.3587 40.0002 77.1782 39.8766 77.0599 39.7529C76.8963 39.7583 76.8149 39.8443 76.8149 40.0125C76.8149 40.1907 76.8947 40.3551 77.0545 40.5064C77.2128 40.6562 77.4378 40.7323 77.7274 40.7323ZM78.4848 40.2491C78.4994 40.1999 78.5109 40.1477 78.5178 40.0932C78.5255 40.0386 78.5293 39.9741 78.5293 39.9004C78.5293 39.6676 78.4863 39.4364 78.4011 39.206C78.3158 38.9755 78.2436 38.7589 78.1837 38.5561C78.0131 38.7443 77.8326 38.9241 77.6437 39.0946C77.4547 39.2651 77.2742 39.408 77.1037 39.5217C77.2151 39.6799 77.3879 39.8289 77.6214 39.9672C77.8557 40.1062 78.143 40.1999 78.4848 40.2491Z" fill="#3C4242"/>
<path d="M81.5489 40.9919C81.2001 40.9919 80.9236 40.9412 80.7193 40.8398C80.515 40.7384 80.3706 40.6132 80.2845 40.4649C80.1993 40.3167 80.1562 40.1677 80.1562 40.0194C80.1562 39.8712 80.1862 39.7567 80.2454 39.6776C80.3053 39.5985 80.3775 39.5393 80.4627 39.4994C80.548 39.4595 80.6294 39.4303 80.7078 39.4103C80.7861 39.3903 80.8391 39.3704 80.8691 39.3511C81.0918 39.1875 81.2962 39.017 81.482 38.8388C81.6679 38.6606 81.8308 38.4724 81.9721 38.2742V38.1851C81.9721 38.0023 82.0182 37.8717 82.1111 37.7949C82.2041 37.7181 82.3024 37.6797 82.4061 37.6797C82.4653 37.6797 82.5098 37.6897 82.5398 37.7096C82.5697 37.7296 82.5843 37.7519 82.5843 37.7765C82.5843 37.8011 82.5736 37.841 82.5513 37.8955C82.529 37.9501 82.5175 38.0192 82.5175 38.1037C82.5175 38.2673 82.5659 38.444 82.6619 38.6345C82.7587 38.825 82.8547 39.0255 82.9515 39.2359C83.0475 39.4464 83.0959 39.6653 83.0959 39.8927C83.0959 39.9572 83.0905 40.0202 83.079 40.0816C83.0682 40.1439 83.0514 40.2015 83.0291 40.256C83.2887 40.2261 83.5337 40.1485 83.7642 40.0225C83.9946 39.8965 84.2174 39.6945 84.4324 39.4172L84.5323 39.4917C84.391 39.7636 84.1797 39.9703 83.8978 40.1116C83.6159 40.2529 83.3071 40.3405 82.973 40.3751C82.8539 40.5878 82.6665 40.7438 82.4107 40.8429C82.1565 40.9427 81.8684 40.9919 81.5489 40.9919ZM81.5712 40.7323C81.6603 40.7323 81.7793 40.7123 81.9276 40.6731C82.0758 40.6332 82.191 40.5318 82.2732 40.3689C81.9614 40.3298 81.6848 40.2476 81.4436 40.1239C81.2024 40.0002 81.0219 39.8766 80.9036 39.7529C80.74 39.7583 80.6586 39.8443 80.6586 40.0125C80.6586 40.1907 80.7385 40.3551 80.8983 40.5064C81.0573 40.6562 81.2816 40.7323 81.5712 40.7323ZM82.3285 40.2491C82.3431 40.1999 82.3546 40.1477 82.3616 40.0932C82.3692 40.0386 82.3731 39.9741 82.3731 39.9004C82.3731 39.6676 82.3301 39.4364 82.2448 39.206C82.1595 38.9755 82.0873 38.7589 82.0274 38.5561C81.8569 38.7443 81.6764 38.9241 81.4874 39.0946C81.2985 39.2651 81.118 39.408 80.9474 39.5217C81.0588 39.6799 81.2316 39.8289 81.4651 39.9672C81.6994 40.1062 81.9875 40.1999 82.3285 40.2491Z" fill="#3C4242"/>
<path d="M84.7021 42.6933C84.5162 42.6933 84.3533 42.6603 84.212 42.5934C84.0707 42.5266 84 42.4291 84 42.3C84 42.1418 84.0599 42.0004 84.1782 41.8768C84.2965 41.7531 84.4563 41.6394 84.6575 41.535C84.858 41.4313 85.0877 41.3322 85.3481 41.2377C85.6077 41.144 85.8789 41.0495 86.1608 40.9558C86.2645 40.773 86.3705 40.5686 86.478 40.3436C86.5855 40.1185 86.6877 39.8696 86.7845 39.5977C86.5471 39.855 86.2929 40.0763 86.0217 40.2622C85.7506 40.448 85.4625 40.5402 85.1583 40.5402C85.017 40.5402 84.878 40.5195 84.7405 40.4772C84.603 40.435 84.4901 40.3697 84.401 40.2806C84.3119 40.1915 84.2673 40.0778 84.2673 39.9388C84.2673 39.8005 84.3026 39.6392 84.3733 39.4564C84.444 39.2736 84.5308 39.0954 84.6352 38.9218C84.7389 38.7489 84.8465 38.6053 84.9586 38.4908C85.0708 38.3764 85.1668 38.3203 85.2482 38.3203C85.2782 38.3203 85.3319 38.328 85.4095 38.3426C85.4879 38.3572 85.5616 38.3787 85.6323 38.4056C85.703 38.4332 85.7383 38.4616 85.7383 38.4908C85.6715 38.5554 85.597 38.6468 85.5155 38.7658C85.4333 38.8849 85.3542 39.017 85.2759 39.163C85.1983 39.3089 85.133 39.451 85.0808 39.59C85.0285 39.7283 85.0032 39.8474 85.0032 39.9465C85.0032 40.0356 85.0324 40.107 85.0923 40.1615C85.1514 40.2161 85.2559 40.243 85.4041 40.243C85.5447 40.243 85.7029 40.1976 85.8773 40.1055C86.0517 40.014 86.226 39.8965 86.4012 39.7529C86.5755 39.6092 86.7369 39.4556 86.8859 39.2928C86.9082 39.2382 86.9281 39.1829 86.9473 39.1261C86.9658 39.0692 86.9827 39.0109 86.9973 38.9517C87.0195 38.8826 87.0733 38.8019 87.1586 38.7105C87.2438 38.6191 87.3798 38.573 87.5649 38.573C87.6018 38.573 87.6387 38.5746 87.6763 38.5769C87.7132 38.5792 87.7539 38.5853 87.7984 38.5953C87.7984 38.6744 87.7631 38.8219 87.6924 39.037C87.6218 39.2521 87.5211 39.504 87.3913 39.7905C87.2615 40.0778 87.1071 40.372 86.9289 40.6739C87.2776 40.5848 87.6194 40.4373 87.9536 40.2322C88.2877 40.0271 88.5589 39.7529 88.7663 39.4118L88.9107 39.4863C88.7993 39.7237 88.6303 39.9303 88.4037 40.1062C88.1771 40.2821 87.9229 40.4327 87.641 40.5594C87.359 40.6854 87.0802 40.7906 86.8052 40.8751C86.6124 41.1916 86.4027 41.4889 86.1761 41.7662C85.9495 42.0435 85.7122 42.2678 85.4633 42.4383C85.216 42.608 84.9617 42.6933 84.7021 42.6933ZM84.646 42.4552C84.7574 42.4552 84.9448 42.3576 85.2083 42.1618C85.4717 41.9659 85.7521 41.6233 86.0494 41.1332C85.7452 41.2423 85.4625 41.3498 85.2029 41.4566C84.9433 41.5626 84.7351 41.6778 84.5792 41.8023C84.4232 41.9259 84.3457 42.0696 84.3457 42.2332C84.3457 42.2731 84.3679 42.32 84.4125 42.3745C84.457 42.4283 84.5346 42.4552 84.646 42.4552Z" fill="#3C4242"/>
<path d="M88.997 40.6844C88.9003 40.6844 88.8173 40.6682 88.7466 40.636C88.676 40.6037 88.6406 40.553 88.6406 40.4839C88.6406 40.4293 88.6736 40.3786 88.7405 40.3318C88.8073 40.2849 88.891 40.2473 88.9909 40.2204C89.0907 40.1935 89.1891 40.1797 89.2859 40.1797C89.375 40.1797 89.4456 40.192 89.4971 40.2166C89.5486 40.2411 89.5747 40.2888 89.5747 40.3579C89.5747 40.4078 89.547 40.457 89.4909 40.5061C89.4349 40.5553 89.3627 40.5976 89.2736 40.6321C89.1845 40.6667 89.0938 40.6844 88.997 40.6844Z" fill="#3C4242"/>
</svg>
