<svg width="22" height="20" viewBox="0 0 22 20" fill="none" xmlns="http://www.w3.org/2000/svg">
<path d="M7 5.25C6.58579 5.25 6.25 5.58579 6.25 6C6.25 6.41421 6.58579 6.75 7 6.75V5.25ZM15 6.75C15.4142 6.75 15.75 6.41421 15.75 6C15.75 5.58579 15.4142 5.25 15 5.25V6.75ZM7 9.25C6.58579 9.25 6.25 9.58579 6.25 10C6.25 10.4142 6.58579 10.75 7 10.75V9.25ZM11 10.75C11.4142 10.75 11.75 10.4142 11.75 10C11.75 9.58579 11.4142 9.25 11 9.25V10.75ZM20.782 13.908L21.4503 14.2485L21.4503 14.2485L20.782 13.908ZM19.908 14.782L20.2485 15.4503L20.2485 15.4503L19.908 14.782ZM19.908 1.21799L20.2485 0.549732L20.2485 0.549732L19.908 1.21799ZM20.782 2.09202L21.4503 1.75153L21.4503 1.75152L20.782 2.09202ZM2.09202 1.21799L2.43251 1.88624L2.43251 1.88624L2.09202 1.21799ZM1.21799 2.09202L1.88624 2.43251L1.88624 2.43251L1.21799 2.09202ZM2.20734 18.3861L2.64003 18.9987L2.64011 18.9986L2.20734 18.3861ZM6.16989 15.5865L5.73712 14.9739L5.73712 14.9739L6.16989 15.5865ZM1.09027 18.4776L1.70486 18.0477L1.70486 18.0477L1.09027 18.4776ZM2.10335 18.4483L1.7683 17.7773L1.76829 17.7773L2.10335 18.4483ZM1.42692 18.6856L1.3173 19.4276L1.3173 19.4276L1.42692 18.6856ZM2.16983 18.412L1.76547 17.7803L1.76536 17.7804L2.16983 18.412ZM2.14376 18.4276L1.7785 17.7725L1.77845 17.7725L2.14376 18.4276ZM7.26828 15.034L7.40589 15.7712L7.40589 15.7712L7.26828 15.034ZM6.80048 15.1825L7.11351 15.8641L7.11352 15.8641L6.80048 15.1825ZM7 6.75H15V5.25H7V6.75ZM7 10.75H11V9.25H7V10.75ZM4.2 1.75H17.8V0.25H4.2V1.75ZM20.25 4.2V11.8H21.75V4.2H20.25ZM20.25 11.8C20.25 12.3724 20.2494 12.7566 20.2252 13.0525C20.2018 13.3396 20.1599 13.4769 20.1138 13.5675L21.4503 14.2485C21.6221 13.9112 21.6892 13.5546 21.7203 13.1747C21.7506 12.8035 21.75 12.3477 21.75 11.8H20.25ZM17.8 15.75C18.3477 15.75 18.8035 15.7506 19.1747 15.7203C19.5546 15.6892 19.9112 15.6221 20.2485 15.4503L19.5675 14.1138C19.4769 14.1599 19.3396 14.2018 19.0525 14.2252C18.7566 14.2494 18.3724 14.25 17.8 14.25V15.75ZM20.1138 13.5675C19.9939 13.8027 19.8027 13.9939 19.5675 14.1138L20.2485 15.4503C20.7659 15.1866 21.1866 14.7659 21.4503 14.2485L20.1138 13.5675ZM17.8 1.75C18.3724 1.75 18.7566 1.75058 19.0525 1.77476C19.3396 1.79822 19.4769 1.8401 19.5675 1.88624L20.2485 0.549732C19.9112 0.377888 19.5546 0.310777 19.1747 0.279739C18.8035 0.249417 18.3477 0.25 17.8 0.25V1.75ZM21.75 4.2C21.75 3.65232 21.7506 3.19646 21.7203 2.82533C21.6892 2.44545 21.6221 2.08879 21.4503 1.75153L20.1138 2.43251C20.1599 2.52307 20.2018 2.66035 20.2252 2.94748C20.2494 3.24336 20.25 3.62757 20.25 4.2H21.75ZM19.5675 1.88624C19.8027 2.00608 19.9939 2.19731 20.1138 2.43251L21.4503 1.75152C21.1866 1.23408 20.7659 0.813385 20.2485 0.549732L19.5675 1.88624ZM4.2 0.25C3.65232 0.25 3.19646 0.249417 2.82533 0.279739C2.44544 0.310777 2.08879 0.377888 1.75153 0.549732L2.43251 1.88624C2.52307 1.8401 2.66035 1.79822 2.94748 1.77476C3.24336 1.75058 3.62757 1.75 4.2 1.75V0.25ZM1.75 4.2C1.75 3.62757 1.75058 3.24336 1.77476 2.94748C1.79822 2.66035 1.8401 2.52307 1.88624 2.43251L0.549732 1.75153C0.377888 2.08879 0.310777 2.44545 0.279739 2.82533C0.249417 3.19646 0.25 3.65232 0.25 4.2H1.75ZM1.75153 0.549732C1.23408 0.813384 0.813384 1.23408 0.549732 1.75153L1.88624 2.43251C2.00608 2.19731 2.19731 2.00608 2.43251 1.88624L1.75153 0.549732ZM17.8 14.25H8.01639V15.75H17.8V14.25ZM2.64011 18.9986L6.60267 16.199L5.73712 14.9739L1.77457 17.7736L2.64011 18.9986ZM0.25 17.7056C0.25 17.9052 0.249252 18.1067 0.264406 18.2723C0.27946 18.4367 0.317386 18.6811 0.47568 18.9074L1.70486 18.0477C1.77289 18.145 1.76568 18.2176 1.75816 18.1355C1.75499 18.1009 1.75258 18.051 1.7513 17.976C1.75002 17.9014 1.75 17.8146 1.75 17.7056H0.25ZM1.76829 17.7773C1.68118 17.8208 1.61175 17.8552 1.5523 17.8832C1.49244 17.9114 1.4529 17.9283 1.42597 17.9384C1.36294 17.9622 1.42374 17.927 1.53654 17.9437L1.3173 19.4276C1.57835 19.4661 1.80366 19.3991 1.95491 19.3421C2.1054 19.2854 2.27432 19.2013 2.43841 19.1193L1.76829 17.7773ZM0.475679 18.9074C0.672743 19.1892 0.977163 19.3773 1.3173 19.4276L1.53654 17.9437C1.60457 17.9537 1.66545 17.9913 1.70486 18.0477L0.475679 18.9074ZM1.75 17.7056V4.2H0.25V17.7056H1.75ZM1.77465 17.7735C1.76983 17.7769 1.76637 17.7793 1.76338 17.7814C1.76043 17.7835 1.75887 17.7846 1.75804 17.7852C1.75672 17.7861 1.76002 17.7838 1.76547 17.7803L2.5742 19.0436C2.60147 19.0262 2.62688 19.008 2.64003 18.9987L1.77465 17.7735ZM2.4384 19.1193C2.45307 19.112 2.4808 19.0983 2.50907 19.0826L1.77845 17.7725C1.78396 17.7695 1.78751 17.7677 1.78623 17.7683C1.78538 17.7688 1.78372 17.7696 1.78053 17.7712C1.77732 17.7728 1.77354 17.7747 1.7683 17.7773L2.4384 19.1193ZM1.76536 17.7804C1.76971 17.7776 1.77403 17.775 1.7785 17.7725L2.50902 19.0826C2.53112 19.0703 2.55295 19.0572 2.5743 19.0435L1.76536 17.7804ZM8.01639 14.25C7.66604 14.25 7.3965 14.2471 7.13067 14.2967L7.40589 15.7712C7.50388 15.7529 7.6118 15.75 8.01639 15.75V14.25ZM6.60266 16.199C6.9331 15.9656 7.02294 15.9057 7.11351 15.8641L6.48745 14.501C6.2417 14.6139 6.02325 14.7718 5.73712 14.9739L6.60266 16.199ZM7.13067 14.2967C6.90869 14.3381 6.69265 14.4067 6.48745 14.501L7.11352 15.8641C7.20679 15.8212 7.30499 15.7901 7.40589 15.7712L7.13067 14.2967Z" fill="#807D7E"/>
</svg>
