<svg width="21" height="32" viewBox="0 0 21 32" fill="none" xmlns="http://www.w3.org/2000/svg">
<path d="M18.2627 0H2.35866C1.05579 0 0 1.05575 0 2.35863V29.2698C0 30.5727 1.05579 31.6284 2.35866 31.6284H18.2627C19.5656 31.6284 20.6214 30.5727 20.6214 29.2698V2.35863C20.6214 1.07822 19.5432 0 18.2627 0Z" fill="white"/>
<path d="M19.4776 3.79688H1.125V25.9907H19.4776V3.79688Z" fill="#404040"/>
<path d="M14.0634 1.41406H6.53815C6.24612 1.41406 5.97656 1.66116 5.97656 1.97565C5.97656 2.29013 6.22366 2.53723 6.53815 2.53723H14.0634C14.3554 2.53723 14.625 2.29013 14.625 1.97565C14.625 1.68362 14.3779 1.41406 14.0634 1.41406Z" fill="#6639A6"/>
<path d="M8.51562 28.6633C8.51562 27.6749 9.32431 26.8438 10.3127 26.8438C11.3011 26.8438 12.1322 27.6524 12.1322 28.6633C12.1322 29.6517 11.3236 30.4603 10.3127 30.4603C9.32431 30.4828 8.51562 29.6741 8.51562 28.6633Z" fill="#6639A6"/>
</svg>
