<svg width="24" height="45" viewBox="0 0 24 45" fill="none" xmlns="http://www.w3.org/2000/svg">
<path fill-rule="evenodd" clip-rule="evenodd" d="M0.500773 0.497901C0.659111 0.340073 0.847209 0.214854 1.0543 0.129417C1.26138 0.0439786 1.48339 0 1.70759 0C1.9318 0 2.1538 0.0439786 2.36089 0.129417C2.56797 0.214854 2.75607 0.340073 2.91441 0.497901L23.369 20.8351C23.5277 20.9925 23.6536 21.1795 23.7396 21.3854C23.8255 21.5913 23.8697 21.812 23.8697 22.035C23.8697 22.2579 23.8255 22.4786 23.7396 22.6845C23.6536 22.8904 23.5277 23.0774 23.369 23.2348L2.91441 43.572C2.59434 43.8902 2.16024 44.069 1.70759 44.069C1.25495 44.069 0.820841 43.8902 0.500773 43.572C0.180705 43.2538 0.000892444 42.8222 0.000892444 42.3721C0.000892444 41.9221 0.180705 41.4904 0.500773 41.1722L19.7519 22.035L0.500773 2.89769C0.342035 2.74026 0.216093 2.55324 0.130162 2.34734C0.0442308 2.14144 0 1.92071 0 1.69779C0 1.47487 0.0442308 1.25414 0.130162 1.04825C0.216093 0.842349 0.342035 0.65533 0.500773 0.497901V0.497901Z" fill="white"/>
</svg>
