<svg width="16" height="16" viewBox="0 0 16 16" fill="none" xmlns="http://www.w3.org/2000/svg">
<path d="M14.6363 15.697C14.9292 15.9899 15.4041 15.9899 15.697 15.697C15.9899 15.4041 15.9899 14.9292 15.697 14.6363L14.6363 15.697ZM11.9167 6.83334C11.9167 9.64078 9.64078 11.9167 6.83334 11.9167V13.4167C10.4692 13.4167 13.4167 10.4692 13.4167 6.83334H11.9167ZM6.83334 11.9167C4.02589 11.9167 1.75 9.64078 1.75 6.83334H0.25C0.25 10.4692 3.19746 13.4167 6.83334 13.4167V11.9167ZM1.75 6.83334C1.75 4.02589 4.02589 1.75 6.83334 1.75V0.25C3.19746 0.25 0.25 3.19746 0.25 6.83334H1.75ZM6.83334 1.75C9.64078 1.75 11.9167 4.02589 11.9167 6.83334H13.4167C13.4167 3.19746 10.4692 0.25 6.83334 0.25V1.75ZM10.4697 11.5303L14.6363 15.697L15.697 14.6363L11.5303 10.4697L10.4697 11.5303Z" fill="#807D7E"/>
</svg>
