<svg width="18" height="18" viewBox="0 0 18 18" fill="none" xmlns="http://www.w3.org/2000/svg">
<path d="M16.4583 7.85546L17.0006 7.94746L17.0006 7.94746L16.4583 7.85546ZM16.9752 4.80914L17.5174 4.90115L17.5174 4.90114L16.9752 4.80914ZM16.1175 2.98474L15.8383 3.45857L15.8383 3.45857L16.1175 2.98474ZM12.8035 1.03149L12.5242 1.50532L12.5242 1.50532L12.8035 1.03149ZM5.19652 1.03149L4.91725 0.557668L4.91725 0.557669L5.19652 1.03149ZM1.88247 2.98474L2.16173 3.45857L2.16173 3.45857L1.88247 2.98474ZM1.0248 4.80914L0.482554 4.90115L0.482554 4.90115L1.0248 4.80914ZM1.54167 7.85546L2.08392 7.76345L2.08392 7.76345L1.54167 7.85546ZM2.54061 8.16992L2.15519 7.77755L2.15519 7.77755L2.54061 8.16992ZM5.48783 1.08292L5.9143 0.735605L5.9143 0.735605L5.48783 1.08292ZM12.5122 1.08292L12.0857 0.735604L12.0857 0.735605L12.5122 1.08292ZM15.4594 8.16992L15.8448 7.77755L15.8448 7.77755L15.4594 8.16992ZM5.36505 17.55H12.6349V16.45H5.36505V17.55ZM15.0024 15.2147V8.57964H13.9024V15.2147H15.0024ZM17.0006 7.94746L17.5174 4.90115L16.4329 4.71714L15.9161 7.76345L17.0006 7.94746ZM16.3968 2.51092L13.0827 0.557669L12.5242 1.50532L15.8383 3.45857L16.3968 2.51092ZM4.91725 0.557669L1.6032 2.51092L2.16173 3.45857L5.47579 1.50532L4.91725 0.557669ZM0.482554 4.90115L0.999418 7.94746L2.08392 7.76345L1.56705 4.71714L0.482554 4.90115ZM2.99758 8.57964V15.2147H4.09758V8.57964H2.99758ZM2.92603 8.56228C2.93259 8.55585 2.93717 8.55317 2.93941 8.55204C2.94181 8.55082 2.94418 8.55003 2.94698 8.54956C2.95331 8.54848 2.96401 8.54881 2.97616 8.55376C2.98833 8.55871 2.99413 8.56505 2.9956 8.56711C2.99614 8.56786 2.99628 8.56821 2.99642 8.56866C2.99651 8.56893 2.99758 8.57209 2.99758 8.57964H4.09758C4.09758 7.55548 2.86011 7.08511 2.15519 7.77755L2.92603 8.56228ZM0.999418 7.94746C1.15479 8.86317 2.27899 9.19787 2.92603 8.56228L2.15519 7.77755C2.14625 7.78633 2.14019 7.78832 2.13574 7.78928C2.12927 7.79069 2.11955 7.7908 2.10864 7.78737C2.09773 7.78393 2.09137 7.77878 2.08881 7.77599C2.08778 7.77487 2.0855 7.77275 2.08392 7.76345L0.999418 7.94746ZM1.6032 2.51092C0.769807 3.00211 0.320999 3.94897 0.482554 4.90115L1.56705 4.71714C1.48311 4.22241 1.71464 3.72208 2.16173 3.45857L1.6032 2.51092ZM5.9143 0.735605C5.67071 0.436511 5.24576 0.364055 4.91725 0.557668L5.47578 1.50532C5.34033 1.58516 5.16432 1.55665 5.06137 1.43024L5.9143 0.735605ZM12.0857 0.735605C10.5052 2.67625 7.49478 2.67625 5.9143 0.735605L5.06137 1.43024C7.08203 3.91137 10.918 3.91137 12.9386 1.43024L12.0857 0.735605ZM13.0827 0.557669C12.7542 0.364055 12.3293 0.436512 12.0857 0.735604L12.9386 1.43024C12.8357 1.55665 12.6597 1.58516 12.5242 1.50532L13.0827 0.557669ZM17.5174 4.90114C17.679 3.94897 17.2302 3.00211 16.3968 2.51092L15.8383 3.45857C16.2854 3.72208 16.5169 4.22241 16.4329 4.71714L17.5174 4.90114ZM15.074 8.56228C15.721 9.19787 16.8452 8.86317 17.0006 7.94746L15.9161 7.76345C15.9145 7.77274 15.9122 7.77487 15.9112 7.77599C15.9086 7.77878 15.9023 7.78393 15.8914 7.78737C15.8805 7.7908 15.8707 7.79069 15.8643 7.78928C15.8598 7.78832 15.8537 7.78633 15.8448 7.77755L15.074 8.56228ZM15.0024 8.57964C15.0024 8.57209 15.0035 8.56893 15.0036 8.56866C15.0037 8.56821 15.0039 8.56786 15.0044 8.56711C15.0059 8.56505 15.0117 8.55871 15.0238 8.55376C15.036 8.54881 15.0467 8.54848 15.053 8.54956C15.0558 8.55003 15.0582 8.55082 15.0606 8.55204C15.0628 8.55317 15.0674 8.55585 15.074 8.56228L15.8448 7.77755C15.1399 7.08511 13.9024 7.55548 13.9024 8.57964H15.0024ZM12.6349 17.55C13.9332 17.55 15.0024 16.5137 15.0024 15.2147H13.9024C13.9024 15.8877 13.3442 16.45 12.6349 16.45V17.55ZM5.36505 16.45C4.65575 16.45 4.09758 15.8877 4.09758 15.2147H2.99758C2.99758 16.5137 4.06683 17.55 5.36505 17.55V16.45Z" fill="#3C4242"/>
</svg>
