<svg width="20" height="16" viewBox="0 0 20 16" fill="none" xmlns="http://www.w3.org/2000/svg">
<path d="M15.5318 3.93668L15.1359 4.31846L15.1359 4.31846L15.5318 3.93668ZM18.8682 7.39665L19.2641 7.01488L19.2641 7.01488L18.8682 7.39665ZM1.55 12.6667V1.46667H0.45V12.6667H1.55ZM1.45 1.55H11.35V0.45H1.45V1.55ZM11.25 1.46667V12.6667H12.35V1.46667H11.25ZM2.8 12.5833H1.45V13.6833H2.8V12.5833ZM11.35 12.5833H6.4V13.6833H11.35V12.5833ZM11.35 1.55C11.2761 1.55 11.25 1.49367 11.25 1.46667H12.35C12.35 0.924201 11.921 0.45 11.35 0.45V1.55ZM1.55 1.46667C1.55 1.49367 1.52391 1.55 1.45 1.55V0.45C0.879033 0.45 0.45 0.924202 0.45 1.46667H1.55ZM0.45 12.6667C0.45 13.2091 0.879033 13.6833 1.45 13.6833V12.5833C1.52391 12.5833 1.55 12.6397 1.55 12.6667H0.45ZM11.25 12.6667C11.25 12.6397 11.2761 12.5833 11.35 12.5833V13.6833C11.921 13.6833 12.35 13.2091 12.35 12.6667H11.25ZM12.25 4.35H15.2136V3.25H12.25V4.35ZM15.1359 4.31846L18.4723 7.77842L19.2641 7.01488L15.9277 3.55491L15.1359 4.31846ZM18.45 7.72663V12.6667H19.55V7.72663H18.45ZM12.35 12.6667V4.26667H11.25V12.6667H12.35ZM13.6 12.5833H12.25V13.6833H13.6V12.5833ZM18.55 12.5833H17.2V13.6833H18.55V12.5833ZM11.25 12.6667C11.25 13.2091 11.679 13.6833 12.25 13.6833V12.5833C12.3239 12.5833 12.35 12.6397 12.35 12.6667H11.25ZM18.45 12.6667C18.45 12.6397 18.4761 12.5833 18.55 12.5833V13.6833C19.121 13.6833 19.55 13.2091 19.55 12.6667H18.45ZM18.4723 7.77842C18.4559 7.76139 18.45 7.74241 18.45 7.72663H19.55C19.55 7.46332 19.4493 7.20695 19.2641 7.01488L18.4723 7.77842ZM15.2136 4.35C15.1805 4.35 15.153 4.33617 15.1359 4.31846L15.9277 3.55491C15.7419 3.36216 15.4854 3.25 15.2136 3.25V4.35ZM12.25 3.25C11.679 3.25 11.25 3.7242 11.25 4.26667H12.35C12.35 4.29367 12.3239 4.35 12.25 4.35V3.25ZM5.85 13.1333C5.85 13.8795 5.27167 14.45 4.6 14.45V15.55C5.91655 15.55 6.95 14.449 6.95 13.1333H5.85ZM4.6 14.45C3.92833 14.45 3.35 13.8795 3.35 13.1333H2.25C2.25 14.449 3.28345 15.55 4.6 15.55V14.45ZM3.35 13.1333C3.35 12.3871 3.92833 11.8167 4.6 11.8167V10.7167C3.28345 10.7167 2.25 11.8177 2.25 13.1333H3.35ZM4.6 11.8167C5.27167 11.8167 5.85 12.3871 5.85 13.1333H6.95C6.95 11.8177 5.91655 10.7167 4.6 10.7167V11.8167ZM16.65 13.1333C16.65 13.8795 16.0717 14.45 15.4 14.45V15.55C16.7166 15.55 17.75 14.449 17.75 13.1333H16.65ZM15.4 14.45C14.7283 14.45 14.15 13.8795 14.15 13.1333H13.05C13.05 14.449 14.0834 15.55 15.4 15.55V14.45ZM14.15 13.1333C14.15 12.3871 14.7283 11.8167 15.4 11.8167V10.7167C14.0834 10.7167 13.05 11.8177 13.05 13.1333H14.15ZM15.4 11.8167C16.0717 11.8167 16.65 12.3871 16.65 13.1333H17.75C17.75 11.8177 16.7166 10.7167 15.4 10.7167V11.8167Z" fill="#3C4242"/>
</svg>
