<svg width="18" height="15" viewBox="0 0 18 15" fill="none" xmlns="http://www.w3.org/2000/svg">
<path d="M15.9703 3.6029C15.9816 3.76101 15.9816 3.91916 15.9816 4.07728C15.9816 8.89996 12.3109 14.4568 5.60203 14.4568C3.53514 14.4568 1.61511 13.8582 0 12.8192C0.293665 12.853 0.575997 12.8643 0.880961 12.8643C2.58639 12.8643 4.15633 12.2883 5.41002 11.3057C3.80621 11.2718 2.46217 10.2214 1.99909 8.77575C2.225 8.80961 2.45087 8.83221 2.68808 8.83221C3.0156 8.83221 3.34317 8.78701 3.6481 8.70799C1.97653 8.36913 0.722812 6.90087 0.722812 5.12765V5.08249C1.20845 5.35356 1.77322 5.52297 2.37178 5.54553C1.38916 4.89045 0.74541 3.77231 0.74541 2.50733C0.74541 1.82968 0.926087 1.20849 1.24235 0.666353C3.03817 2.88005 5.73754 4.32571 8.76441 4.48386C8.70795 4.21279 8.67406 3.93046 8.67406 3.6481C8.67406 1.63767 10.3005 0 12.3222 0C13.3725 0 14.3212 0.440481 14.9876 1.15203C15.8121 0.993914 16.6027 0.68895 17.303 0.271068C17.0319 1.11817 16.4559 1.82971 15.6992 2.28146C16.4333 2.20244 17.1449 1.99909 17.7999 1.71676C17.3031 2.43957 16.6818 3.08333 15.9703 3.6029V3.6029Z" fill="#2A2F2F"/>
</svg>
